<?xml version="1.0" encoding="utf-8"?>
<!-- Generator: Adobe Illustrator 16.0.3, SVG Export Plug-In . SVG Version: 6.00 Build 0)  -->
<!DOCTYPE svg PUBLIC "-//W3C//DTD SVG 1.1//EN" "http://www.w3.org/Graphics/SVG/1.1/DTD/svg11.dtd">
<svg version="1.1" xmlns="http://www.w3.org/2000/svg" xmlns:xlink="http://www.w3.org/1999/xlink" x="0px" y="0px" width="434px"
	 height="206px" viewBox="0 0 434 206" enable-background="new 0 0 434 206" xml:space="preserve">
<g id="Colores" display="none">
	<rect x="21" y="59" display="inline" fill="#CDCCCC" width="134" height="134"/>
</g>
<g id="Capa_6">
</g>
<g id="Capa_5">
</g>
<g id="Positivo">
	<g>
		<g id="Text">
			<g>
				<path fill="#FF4745" d="M56.299,67.59v56.001h-4.24V67.59H56.299z"/>
				<path fill="#FF4745" d="M71.898,84.23h-3.681l3.04-16.641h4.961L71.898,84.23z"/>
				<path fill="#FF4745" d="M144.539,98.231v25.36h-4v-25.36c0-7.601-4.4-11.681-10.641-11.681c-6.721,0-12,4.48-12,14.721v22.32h-4
					v-25.36c0-7.601-4.08-11.681-10.24-11.681c-6.561,0-12.4,4.48-12.4,14.721v22.32h-4V83.59h4v6.88
					c2.959-5.521,7.76-7.76,12.88-7.76c5.841,0,10.4,2.88,12.48,8.16c2.88-5.6,8-8.16,13.36-8.16
					C138.459,82.71,144.539,88.23,144.539,98.231z"/>
			</g>
			<g>
				<path fill="#181F2C" d="M214.994,95.591c0,15.84-11.76,28-27.201,28h-22.4V67.59h22.4
					C203.234,67.59,214.994,79.75,214.994,95.591z M202.674,95.591c0-9.601-6.08-15.681-14.881-15.681h-9.6v31.361h9.6
					C196.594,111.271,202.674,105.191,202.674,95.591z"/>
				<path fill="#181F2C" d="M262.762,83.59v40.001h-12v-3.76c-2.641,3.04-6.561,4.88-11.921,4.88c-10.48,0-19.12-9.2-19.12-21.121
					s8.64-21.121,19.12-21.121c5.36,0,9.28,1.84,11.921,4.88v-3.76H262.762z M250.762,103.591c0-6-4.001-9.76-9.521-9.76
					c-5.52,0-9.52,3.76-9.52,9.76s4,9.76,9.52,9.76C246.761,113.351,250.762,109.591,250.762,103.591z"/>
				<path fill="#181F2C" d="M310.176,83.59l-14.8,40.001h-13.601L266.975,83.59h13.281l8.32,25.361l8.32-25.361H310.176z"/>
				<path fill="#181F2C" d="M313.15,72.87c0-3.92,3.279-7.2,7.2-7.2c3.92,0,7.2,3.28,7.2,7.2s-3.28,7.2-7.2,7.2
					C316.43,80.07,313.15,76.79,313.15,72.87z M314.35,83.59h12.001v40.001H314.35V83.59z"/>
				<path fill="#181F2C" d="M375.808,67.59v56.001h-12.001v-3.76c-2.64,3.04-6.56,4.88-11.92,4.88c-10.48,0-19.12-9.2-19.12-21.121
					s8.64-21.121,19.12-21.121c5.36,0,9.28,1.84,11.92,4.88V67.59H375.808z M363.807,103.591c0-6-4-9.76-9.52-9.76
					c-5.521,0-9.521,3.76-9.521,9.76s4,9.76,9.521,9.76C359.807,113.351,363.807,109.591,363.807,103.591z"/>
			</g>
		</g>
	</g>
</g>
<g id="Responsive">
</g>
<g id="Negativo">
</g>
</svg>
